<svg xmlns="http://www.w3.org/2000/svg" width="19.197" height="24.321" viewBox="0 0 19.197 24.321">
  <path id="link" d="M878.361,1113.808l-3.5,6.062a2,2,0,0,1-2.732.732l-.866-.5,1-1.732h0a1,1,0,0,0,1.366-.366l2.5-4.33a1,1,0,0,0-.366-1.366l-3.464-2a1,1,0,0,0-1.366.366l-2.5,4.33a1,1,0,0,0,.366,1.366l-1,1.732-.866-.5a2,2,0,0,1-.732-2.732l3.5-6.062a2,2,0,0,1,2.732-.732l5.2,3A2,2,0,0,1,878.361,1113.808Zm-11.83,10.49a1,1,0,0,1-.366-1.366l4-6.928a1,1,0,1,1,1.732,1l-4,6.928A1,1,0,0,1,866.531,1124.3Zm-.732-2.732h0a1,1,0,0,0-1.366.366l-2.5,4.33a1,1,0,0,0,.366,1.366l3.464,2a1,1,0,0,0,1.366-.366l2.5-4.33a1,1,0,0,0-.366-1.366h0l1-1.732.866.5a2,2,0,0,1,.732,2.732l-3.5,6.062a2,2,0,0,1-2.732.732l-5.2-3a2,2,0,0,1-.732-2.732l3.5-6.062a2,2,0,0,1,2.732-.732l.866.5Z" transform="translate(-859.433 -1107.808)" fill="#fff"/>
</svg>
