<svg xmlns="http://www.w3.org/2000/svg" width="34.644" height="23.317" viewBox="0 0 34.644 23.317">
  <path id="preview" d="M799.16,1130.32a22.685,22.685,0,0,1-5.4-4.008,29.484,29.484,0,0,1-4.6-5.829,29.723,29.723,0,0,1,4.621-5.829,22.836,22.836,0,0,1,5.4-4.008,15.4,15.4,0,0,1,7.138-1.822,15.076,15.076,0,0,1,6.95,1.822,25.287,25.287,0,0,1,5.54,4.008,34.794,34.794,0,0,1,4.99,5.829h0l0,0a35.127,35.127,0,0,1-5.011,5.824,25.44,25.44,0,0,1-5.543,4.008,15.008,15.008,0,0,1-6.924,1.822A15.465,15.465,0,0,1,799.16,1130.32Zm2.02-9.82a5.24,5.24,0,1,0,5.24-5.24A5.246,5.246,0,0,0,801.18,1120.5Zm2.66-.02a2.61,2.61,0,1,1,2.61,2.61A2.61,2.61,0,0,1,803.84,1120.48Z" transform="translate(-789.161 -1108.824)" fill="#fff"/>
</svg>
