<svg xmlns="http://www.w3.org/2000/svg" width="23.997" height="19.994" viewBox="0 0 23.997 19.994">
  <path id="clients" d="M737.825,1234.007h-1.558l-3.151-2.852a8.369,8.369,0,0,0,3.547-2.163v-.622c-.655.118-2.129-.392-1.516-.694a1.275,1.275,0,0,0,.6-.725,2.186,2.186,0,0,1-.1-.552l-.015-.271a.371.371,0,0,1-.116.024.389.389,0,0,1-.386-.393v-.785a.389.389,0,0,1,.386-.393c.011,0,.021.006.032.007l-.028-.508a2.327,2.327,0,1,1,4.621,0l-.028.508c.011,0,.021-.006.032-.006a.389.389,0,0,1,.386.393v.785a.389.389,0,0,1-.386.393.372.372,0,0,1-.117-.024l-.015.271a2.168,2.168,0,0,1-.135.62,1.237,1.237,0,0,0,.57.656c.6.293-.775.781-1.455.7v.614a8.445,8.445,0,0,0,3.853,2.267s1.157.916,1.157,1.833v.916Zm-3.87-6.548a.625.625,0,0,1-.193-.038l-.025.432a3.489,3.489,0,0,1-1.678,2.768v1.367a13.964,13.964,0,0,0,6.335,3.616s1.9,1.462,1.9,2.924v1.462H720v-1.462c0-1.462,1.9-2.924,1.9-2.924a13.964,13.964,0,0,0,6.336-3.616v-1.364a3.485,3.485,0,0,1-1.68-2.771l-.024-.432a.624.624,0,0,1-.191.038.631.631,0,0,1-.634-.627v-1.253a.631.631,0,0,1,.634-.626c.019,0,.035.009.053.011l-.045-.811a3.815,3.815,0,1,1,7.6,0l-.046.811c.018,0,.034-.01.052-.01a.63.63,0,0,1,.634.626v1.253A.63.63,0,0,1,733.955,1227.459Z" transform="translate(-720 -1219.994)" fill="#2aacc8"/>
</svg>
