<svg xmlns="http://www.w3.org/2000/svg" width="24" height="23" viewBox="0 0 24 23">
  <path id="comments" d="M216.668,1238.679,209,1245l1.726-5.69c-6.028-.461-10.726-4.148-10.726-8.63,0-4.794,5.373-8.68,12-8.68s12,3.886,12,8.68C224,1234.276,220.977,1237.361,216.668,1238.679ZM212,1223.813c-5.243,0-9.494,3.075-9.494,6.867s4.251,6.867,9.494,6.867,9.494-3.075,9.494-6.867S217.243,1223.813,212,1223.813Zm-4.5,6.348h9v1.484h-9Zm0-2.968h9v1.484h-9Zm6.76,7.419h-4.5v-1.484h4.5Z" transform="translate(-200 -1222)" fill="#2aacc8"/>
</svg>
