<svg width="76" height="34" viewBox="0 0 76 34" fill="none" xmlns="http://www.w3.org/2000/svg">
<path d="M70.3008 6.60744C69.4897 5.52637 68.2675 5.72142 68.1609 5.70034C67.707 3.76665 66.0998 2.22438 64.0723 1.9232L57.3483 0.92437C56.6764 0.825065 56.0713 1.34474 56.0713 2.02562V12.8231C56.0713 13.4381 56.5696 13.9364 57.1845 13.9364C57.7995 13.9364 58.2978 13.4381 58.2978 12.8231V7.92719H64.9221V16.2143C64.9221 17.3142 65.8169 18.209 66.9168 18.209H73.7731V20.0345H73.2486C72.6336 20.0345 72.1353 20.5328 72.1353 21.1477C72.1353 21.7627 72.6336 22.261 73.2486 22.261H73.7731V26.2644H71.2439C70.6175 23.9753 68.5204 22.2876 66.0354 22.2876C63.5504 22.2876 61.4533 23.9753 60.8269 26.2644H58.2978V17.2744C58.2978 16.6595 57.7995 16.1612 57.1845 16.1612C56.5696 16.1612 56.0713 16.6595 56.0713 17.2744V22.1703H54.214V3.0966C54.214 1.89203 53.234 0.912048 52.0295 0.912048H12.1888C11.5738 0.912048 11.0755 1.41035 11.0755 2.02533C11.0755 2.6403 11.5738 3.13861 12.1888 3.13861H51.9876V22.17H4.60259V3.13876H7.73759C8.35256 3.13876 8.85086 2.64045 8.85086 2.02548C8.85086 1.4105 8.35256 0.912198 7.73759 0.912198H4.56058C3.35602 0.912198 2.37603 1.89218 2.37603 3.09675V22.1702H1.11328C0.498304 22.1702 0 22.6685 0 23.2835V26.1235C0 27.4289 1.06207 28.4908 2.36742 28.4908H3.39639V29.1746H1.11328C0.498304 29.1746 0 29.6729 0 30.2879C0 30.9029 0.498304 31.4012 1.11328 31.4012H4.50967C5.12465 31.4012 5.62295 30.9029 5.62295 30.2879V28.4908H6.83138C7.22043 31.089 9.46688 33.0882 12.1719 33.0882C14.8768 33.0882 17.1233 31.089 17.5123 28.4908H21.7861C22.4011 28.4908 22.8994 27.9925 22.8994 27.3775C22.8994 26.7625 22.4011 26.2642 21.7861 26.2642H17.3805C17.1926 25.5777 16.8727 24.9457 16.4492 24.3967H36.8112C36.3879 24.9457 36.0679 25.5777 35.8799 26.2642H26.2372C25.6222 26.2642 25.1239 26.7625 25.1239 27.3775C25.1239 27.9925 25.6222 28.4908 26.2372 28.4908H35.7481C36.1372 31.089 38.3836 33.0882 41.0886 33.0882C43.7936 33.0882 46.04 31.089 46.4291 28.4908H60.6955C61.0846 31.089 63.331 33.0882 66.036 33.0882C68.741 33.0882 70.9873 31.089 71.3763 28.4908H73.9336C75.0733 28.4908 76.0004 27.5637 76.0004 26.4241V14.9588C76 13.6382 75.3688 13.5999 70.3008 6.60744ZM12.1717 30.8615C10.4216 30.8615 8.99782 29.4377 8.99782 27.6877C8.99782 27.6218 9.00049 27.5565 9.0045 27.4917C9.0045 27.4911 9.0045 27.4905 9.00465 27.49C9.10722 25.8318 10.4881 24.5139 12.1717 24.5139C13.8553 24.5139 15.2363 25.8317 15.3388 27.49C15.3388 27.4906 15.3388 27.4912 15.3389 27.4917C15.3429 27.5565 15.3456 27.6218 15.3456 27.6877C15.3456 29.4378 13.9218 30.8615 12.1717 30.8615ZM6.96319 26.2642H2.36757C2.28994 26.2642 2.22671 26.201 2.22671 26.1235V24.3967H7.89448C7.47099 24.9457 7.15096 25.5777 6.96319 26.2642ZM56.0714 24.3967V26.2642H46.297C46.109 25.5777 45.7892 24.9457 45.3657 24.3967H56.0714ZM41.0885 30.8615C39.3384 30.8615 37.9146 29.4377 37.9146 27.6877C37.9146 27.6218 37.9172 27.5565 37.9213 27.4917C37.9213 27.4911 37.9212 27.4905 37.9214 27.49C38.024 25.8318 39.4049 24.5139 41.0885 24.5139C42.772 24.5139 44.1531 25.8317 44.2555 27.49C44.2555 27.4906 44.2555 27.4912 44.2557 27.4917C44.2597 27.5565 44.2623 27.6218 44.2623 27.6877C44.2622 29.4378 42.8385 30.8615 41.0885 30.8615ZM66.0357 30.8615C64.2856 30.8615 62.8618 29.4377 62.8618 27.6877C62.8618 25.9377 64.2856 24.5139 66.0357 24.5139C67.7856 24.5139 69.2094 25.9377 69.2094 27.6877C69.2094 29.4378 67.7856 30.8615 66.0357 30.8615ZM63.7452 4.12557C64.6777 4.26406 65.4483 4.88007 65.8214 5.70019H58.298V3.31614L63.7452 4.12557ZM67.1488 15.9823V7.9269H67.1767C67.1778 7.9269 67.1787 7.92675 67.1796 7.92675H68.4864C68.4995 7.92675 68.5119 7.93298 68.52 7.94367L73.7651 14.9336C73.7705 14.9408 73.7736 14.9496 73.7736 14.9587V15.9823H67.1488Z" fill="#E0CFCF"/>
<path d="M10.6841 19.8297C11.2991 19.8297 11.7974 19.3314 11.7974 18.7164V6.59247C11.7974 5.97749 11.2991 5.47919 10.6841 5.47919C10.0691 5.47919 9.5708 5.97749 9.5708 6.59247V18.7164C9.5708 19.3314 10.0691 19.8297 10.6841 19.8297Z" fill="#5B5B5B"/>
<path d="M20.603 18.7164V6.59247C20.603 5.97749 20.1047 5.47919 19.4897 5.47919C18.8747 5.47919 18.3764 5.97749 18.3764 6.59247V18.7164C18.3764 19.3314 18.8747 19.8297 19.4897 19.8297C20.1047 19.8297 20.603 19.3314 20.603 18.7164Z" fill="#5B5B5B"/>
<path d="M38.2141 18.7164V6.59247C38.2141 5.97749 37.7158 5.47919 37.1008 5.47919C36.4858 5.47919 35.9875 5.97749 35.9875 6.59247V18.7164C35.9875 19.3314 36.4858 19.8297 37.1008 19.8297C37.7158 19.8297 38.2141 19.3314 38.2141 18.7164Z" fill="#5B5B5B"/>
<path d="M47.0197 18.7164V6.59247C47.0197 5.97749 46.5213 5.47919 45.9064 5.47919C45.2914 5.47919 44.7931 5.97749 44.7931 6.59247V18.7164C44.7931 19.3314 45.2914 19.8297 45.9064 19.8297C46.5213 19.8297 47.0197 19.3314 47.0197 18.7164Z" fill="#5B5B5B"/>
<path d="M23.2137 17.3988L23.9156 18.1198C25.3148 19.5574 27.614 19.5901 29.0532 18.1893L32.8221 14.5209C33.9193 13.4531 34.0493 11.5926 32.8011 10.378L29.0531 6.7299C27.6177 5.33265 25.3129 5.36397 23.9156 6.79937L23.2137 7.52048C22.7849 7.96119 22.7945 8.66597 23.2351 9.09466L26.6919 12.4596L23.2351 15.8245C22.7944 16.2534 22.7849 16.9581 23.2137 17.3988ZM29.0645 13.2574C29.2797 13.048 29.4013 12.7602 29.4013 12.4597C29.4013 12.1593 29.2799 11.8715 29.0645 11.662L25.5887 8.2787C26.134 7.79672 26.9702 7.80978 27.5001 8.32545L31.2482 11.9736C31.5525 12.2702 31.5176 12.6834 31.2691 12.9254L27.5003 16.5937C26.9702 17.1098 26.134 17.1229 25.5887 16.6406L29.0645 13.2574Z" fill="#CEBBBB"/>
</svg>
