<svg width="27" height="32" viewBox="0 0 27 32" fill="none" xmlns="http://www.w3.org/2000/svg">
<path d="M19.4 2.45739C23.1538 2.46758 26.1958 9.89332 26.2 19.0565C26.2 19.5958 26.3791 20.0329 26.6 20.0329C26.8209 20.0329 27 19.5958 27 19.0565C26.9954 8.81523 23.5955 0.515852 19.4 0.504639C19.1791 0.504639 19 0.941737 19 1.48102C19 2.02029 19.1791 2.45739 19.4 2.45739Z" fill="white"/>
<path d="M19.3832 6.34721C21.7102 6.35427 23.5959 11.2109 23.5986 17.2041C23.5986 17.7492 23.7702 18.191 23.9818 18.191C24.1934 18.191 24.365 17.7492 24.365 17.2041C24.3618 10.1212 22.1332 4.38142 19.3832 4.37332C19.1715 4.37332 19 4.81515 19 5.36027C19 5.90538 19.1715 6.34721 19.3832 6.34721Z" fill="white"/>
<path d="M19.3832 8.46406C20.4409 8.4673 21.298 10.6748 21.2993 13.399C21.2993 13.9441 21.4709 14.386 21.6825 14.386C21.8941 14.386 22.0657 13.9441 22.0657 13.399C22.064 9.58518 20.864 6.49445 19.3832 6.49017C19.1715 6.49017 19 6.932 19 7.47712C19 8.02223 19.1715 8.46406 19.3832 8.46406Z" fill="white"/>
<path d="M23.3702 25.5018L18.5125 21.8112C17.8961 21.3467 17.0698 21.4995 16.614 22.1625L15.199 24.2351C15.0172 24.5083 14.6866 24.5875 14.4235 24.421L14.1544 24.252C13.2621 23.6979 12.1519 23.0082 9.91502 20.4589C7.67815 17.9097 7.07144 16.644 6.58509 15.6294L6.4375 15.3227C6.28935 15.0231 6.35759 14.6449 6.59746 14.4361L8.41557 12.8245C8.9973 12.3053 9.13167 11.3642 8.72434 10.6617L5.48481 5.12767C5.06736 4.41231 4.22983 4.19756 3.58356 4.64014L1.55226 6.03024C0.914006 6.4577 0.445747 7.15 0.245667 7.96206C-0.485803 10.9983 0.0644751 16.2385 6.84029 23.9586C12.2303 30.0985 16.2429 31.7497 19.0009 31.7497C19.6356 31.7528 20.2679 31.6587 20.8806 31.47C21.5936 31.2423 22.2014 30.7088 22.5764 29.9815L23.7978 27.6688C24.1869 26.9324 23.9985 25.9776 23.3702 25.5018ZM23.1087 27.2012L21.89 29.5154C21.6208 30.0403 21.1836 30.4263 20.6702 30.5925C18.2098 31.362 13.9112 30.7246 7.40617 23.3139C0.901118 15.9032 0.341653 11.0066 1.01716 8.20313C1.1632 7.61751 1.50243 7.11887 1.9638 6.81165L3.99511 5.42337C4.27552 5.23115 4.63903 5.32432 4.82018 5.63475L6.57993 8.64459L8.05693 11.1683C8.23381 11.473 8.1757 11.8814 7.92336 12.1069L6.10483 13.7184C5.55141 14.2005 5.39337 15.0728 5.73411 15.7651L5.87851 16.064C6.38965 17.1319 7.02513 18.4605 9.3452 21.1032C11.6653 23.7458 12.8311 24.4698 13.7681 25.0521L14.0309 25.217C14.6385 25.6051 15.4043 25.4251 15.8274 24.7946L17.242 22.7229C17.44 22.4356 17.7983 22.3695 18.0659 22.5708L22.9232 26.2613C23.1958 26.4675 23.2776 26.8818 23.1087 27.2012Z" fill="white"/>
</svg>
